<mxfile host="app.diagrams.net" modified="2023-06-05T18:25:02.289Z" agent="Mozilla/5.0 (Windows NT 10.0; Win64; x64) AppleWebKit/537.36 (KHTML, like Gecko) Chrome/113.0.0.0 Safari/537.36 OPR/99.0.0.0" etag="fmrVPKJYuo8Mjb0h2omb" version="21.3.7" type="device">
  <diagram name="PÃ¡gina-1" id="EDCbJjLtQDhbKDRqo_fZ">
    <mxGraphModel dx="672" dy="533" grid="1" gridSize="10" guides="1" tooltips="1" connect="1" arrows="1" fold="1" page="1" pageScale="1" pageWidth="827" pageHeight="1169" math="0" shadow="0">
      <root>
        <mxCell id="0" />
        <mxCell id="1" parent="0" />
        <mxCell id="vhCPgLxaCk_xVJmF7eh4-5" style="edgeStyle=orthogonalEdgeStyle;rounded=0;orthogonalLoop=1;jettySize=auto;html=1;exitX=1;exitY=0.25;exitDx=0;exitDy=0;entryX=0;entryY=0.25;entryDx=0;entryDy=0;" edge="1" parent="1" source="vhCPgLxaCk_xVJmF7eh4-1" target="vhCPgLxaCk_xVJmF7eh4-2">
          <mxGeometry relative="1" as="geometry" />
        </mxCell>
        <mxCell id="vhCPgLxaCk_xVJmF7eh4-1" value="Cliente RMI" style="rounded=0;whiteSpace=wrap;html=1;" vertex="1" parent="1">
          <mxGeometry x="10" y="80" width="120" height="60" as="geometry" />
        </mxCell>
        <mxCell id="vhCPgLxaCk_xVJmF7eh4-6" style="edgeStyle=orthogonalEdgeStyle;rounded=0;orthogonalLoop=1;jettySize=auto;html=1;exitX=0;exitY=0.75;exitDx=0;exitDy=0;entryX=1;entryY=0.75;entryDx=0;entryDy=0;" edge="1" parent="1" source="vhCPgLxaCk_xVJmF7eh4-2" target="vhCPgLxaCk_xVJmF7eh4-1">
          <mxGeometry relative="1" as="geometry" />
        </mxCell>
        <mxCell id="vhCPgLxaCk_xVJmF7eh4-2" value="RMI Registry" style="rounded=1;whiteSpace=wrap;html=1;" vertex="1" parent="1">
          <mxGeometry x="294" y="80" width="120" height="60" as="geometry" />
        </mxCell>
        <mxCell id="vhCPgLxaCk_xVJmF7eh4-4" style="edgeStyle=orthogonalEdgeStyle;rounded=0;orthogonalLoop=1;jettySize=auto;html=1;exitX=0;exitY=0.5;exitDx=0;exitDy=0;entryX=0.5;entryY=1;entryDx=0;entryDy=0;" edge="1" parent="1" source="vhCPgLxaCk_xVJmF7eh4-3" target="vhCPgLxaCk_xVJmF7eh4-1">
          <mxGeometry relative="1" as="geometry" />
        </mxCell>
        <mxCell id="vhCPgLxaCk_xVJmF7eh4-3" value="URL(file,ftp o http)" style="rounded=0;whiteSpace=wrap;html=1;" vertex="1" parent="1">
          <mxGeometry x="294" y="270" width="120" height="60" as="geometry" />
        </mxCell>
        <mxCell id="vhCPgLxaCk_xVJmF7eh4-9" value="" style="endArrow=classic;startArrow=classic;html=1;rounded=0;entryX=0.5;entryY=1;entryDx=0;entryDy=0;exitX=0.5;exitY=0;exitDx=0;exitDy=0;" edge="1" parent="1" source="vhCPgLxaCk_xVJmF7eh4-3" target="vhCPgLxaCk_xVJmF7eh4-2">
          <mxGeometry width="50" height="50" relative="1" as="geometry">
            <mxPoint x="320" y="300" as="sourcePoint" />
            <mxPoint x="370" y="250" as="targetPoint" />
          </mxGeometry>
        </mxCell>
        <mxCell id="vhCPgLxaCk_xVJmF7eh4-19" style="edgeStyle=orthogonalEdgeStyle;rounded=0;orthogonalLoop=1;jettySize=auto;html=1;exitX=0.5;exitY=0;exitDx=0;exitDy=0;entryX=1;entryY=0.5;entryDx=0;entryDy=0;" edge="1" parent="1" source="vhCPgLxaCk_xVJmF7eh4-11" target="vhCPgLxaCk_xVJmF7eh4-2">
          <mxGeometry relative="1" as="geometry" />
        </mxCell>
        <mxCell id="vhCPgLxaCk_xVJmF7eh4-11" value="" style="rounded=1;whiteSpace=wrap;html=1;" vertex="1" parent="1">
          <mxGeometry x="460" y="130" width="150" height="100" as="geometry" />
        </mxCell>
        <mxCell id="vhCPgLxaCk_xVJmF7eh4-12" value="Servidor RMI" style="rounded=0;whiteSpace=wrap;html=1;" vertex="1" parent="1">
          <mxGeometry x="475" y="150" width="120" height="60" as="geometry" />
        </mxCell>
        <mxCell id="vhCPgLxaCk_xVJmF7eh4-16" value="" style="endArrow=classic;html=1;rounded=0;exitX=1;exitY=1;exitDx=0;exitDy=0;entryX=0;entryY=0;entryDx=0;entryDy=0;" edge="1" parent="1" source="vhCPgLxaCk_xVJmF7eh4-1" target="vhCPgLxaCk_xVJmF7eh4-3">
          <mxGeometry width="50" height="50" relative="1" as="geometry">
            <mxPoint x="320" y="300" as="sourcePoint" />
            <mxPoint x="370" y="250" as="targetPoint" />
          </mxGeometry>
        </mxCell>
        <mxCell id="vhCPgLxaCk_xVJmF7eh4-20" value="1. El servidor registra un objeto remoto" style="text;html=1;strokeColor=none;fillColor=none;align=center;verticalAlign=middle;whiteSpace=wrap;rounded=0;" vertex="1" parent="1">
          <mxGeometry x="430" y="80" width="120" as="geometry" />
        </mxCell>
        <mxCell id="vhCPgLxaCk_xVJmF7eh4-21" value="2. El cliente ejecuta Naming lookup" style="text;html=1;strokeColor=none;fillColor=none;align=center;verticalAlign=middle;whiteSpace=wrap;rounded=0;" vertex="1" parent="1">
          <mxGeometry x="130" y="70" width="180" height="10" as="geometry" />
        </mxCell>
        <mxCell id="vhCPgLxaCk_xVJmF7eh4-22" value="3. El registry devuleve una instancia del stub" style="text;html=1;strokeColor=none;fillColor=none;align=center;verticalAlign=middle;whiteSpace=wrap;rounded=0;" vertex="1" parent="1">
          <mxGeometry x="144" y="130" width="150" height="40" as="geometry" />
        </mxCell>
        <mxCell id="vhCPgLxaCk_xVJmF7eh4-23" value="4.El cliente pide la clase del stub a partir del codebase" style="text;html=1;strokeColor=none;fillColor=none;align=center;verticalAlign=middle;whiteSpace=wrap;rounded=0;" vertex="1" parent="1">
          <mxGeometry x="110" y="210" width="90" height="50" as="geometry" />
        </mxCell>
        <mxCell id="vhCPgLxaCk_xVJmF7eh4-24" value="5. El servidor HTTP devuelve la clase del stub" style="text;html=1;strokeColor=none;fillColor=none;align=center;verticalAlign=middle;whiteSpace=wrap;rounded=0;" vertex="1" parent="1">
          <mxGeometry x="84" y="310" width="196" height="30" as="geometry" />
        </mxCell>
      </root>
    </mxGraphModel>
  </diagram>
</mxfile>
